#!OML:ASF H:\Terrain\Patient Classification 1\Takeo\Monday\TakeoMonday.ASF
:FULLY-SPECIFIED
:DEGREES
1337
root 9.72061 17.0693 -2.37412 -5.7508 16.3818 -0.20368
lowerback -0.243269 9.36675 11.0551
upperback 5.46547 12.4552 -2.99657
thorax 9.11428 7.00179 -7.95986
lowerneck -16.3092 -12.4529 -3.8644
upperneck -3.02504 -16.3963 17.5829
head 3.57618 -7.36163 4.52349
rclavicle -2.23136e-014 -9.93923e-015
rhumerus 66.864 59.5836 -79.8625
rradius 43.0433
rwrist -77.0187
rhand -32.7603 8.75829
rfingers 7.12502
rthumb -5.9828 -21.1372
lclavicle -2.23136e-014 -9.93923e-015
lhumerus 67.5819 1.48004 61.3669
lradius 10.4642
lwrist -14.6514
lhand -39.768 40.1009
lfingers 7.12502
lthumb -12.7442 69.6919
rfemur 12.7313 -23.5568 21.3357
rtibia 21.9847
rfoot -35.1088 -31.6304
rtoes 9.77995
lfemur -23.1226 -16.0965 -21.0259
ltibia 37.0701
lfoot -5.71964 -7.08508
ltoes -9.18927
1338
root 9.70428 17.0693 -2.36132 -5.5233 16.8781 0.475885
lowerback -0.367401 9.36992 10.239
upperback 5.49011 12.4974 -3.25241
thorax 9.08796 6.98459 -7.77861
lowerneck -15.7361 -12.431 -3.97089
upperneck -3.25975 -16.3287 17.7401
head 3.43565 -7.36604 4.6264
rclavicle -3.8763e-015 -1.59028e-015
rhumerus 67.011 59.9325 -79.477
rradius 42.8982
rwrist -76.5536
rhand -32.8172 9.13949
rfingers 7.12502
rthumb -6.03778 -20.7545
lclavicle -3.8763e-015 -1.59028e-015
lhumerus 67.3177 1.71769 61.2697
lradius 10.5557
lwrist -13.8559
lhand -39.0654 38.3766
lfingers 7.12502
lthumb -12.0667 68.0087
rfemur 12.6496 -23.5758 20.7557
rtibia 22.1548
rfoot -35.5908 -31.8698
rtoes 9.8594
lfemur -23.1372 -16.3711 -21.7702
ltibia 37.0489
lfoot -5.64593 -7.20219
ltoes -9.6063
1339
root 9.69494 17.0719 -2.34999 -5.60641 17.4447 0.374279
lowerback -0.453355 9.32944 10.3089
upperback 5.56396 12.4383 -3.29852
thorax 9.23637 6.97233 -7.85285
lowerneck -15.4531 -12.3497 -3.76741
upperneck -3.45169 -16.2062 17.4266
head 3.27105 -7.34674 4.54046
rclavicle 1.4879e-013 -5.40694e-014
rhumerus 67.1594 60.1168 -78.9334
rradius 42.9471
rwrist -76.1021
rhand -32.9531 8.99683
rfingers 7.12502
rthumb -6.16894 -20.8933
lclavicle 1.4879e-013 -5.40694e-014
lhumerus 67.2124 1.4294 60.0891
lradius 10.4929
lwrist -11.5756
lhand -39.6383 38.8403
lfingers 7.12502
lthumb -12.6191 68.4392
rfemur 12.6681 -23.8753 20.8628
rtibia 22.3517
rfoot -35.2953 -32.1947
rtoes 9.6381
lfemur -23.0985 -16.8567 -21.6884
ltibia 37.0254
lfoot -5.36187 -7.36329
ltoes -8.75147
1340
root 9.68874 17.0638 -2.3409 -5.88636 17.9993 -0.0807873
lowerback -0.410216 9.33828 10.8381
upperback 5.58927 12.4396 -3.31151
thorax 9.37587 7.01774 -8.14673
lowerneck -15.1384 -12.2928 -3.68623
upperneck -3.5225 -16.128 17.3138
head 3.17474 -7.3341 4.52281
rclavicle 1.69812e-013 -3.57812e-014
rhumerus 66.7321 59.9703 -79.0813
rradius 42.9455
rwrist -75.6955
rhand -33.0493 8.57722
rfingers 7.12502
rthumb -6.26181 -21.3102
lclavicle 1.69812e-013 -3.57812e-014
lhumerus 67.0372 1.29076 60.2008
lradius 10.7149
lwrist -10.8111
lhand -39.0831 38.7094
lfingers 7.12502
lthumb -12.0838 68.3405
rfemur 12.8645 -24.279 21.264
rtibia 22.4066
rfoot -34.5242 -32.4732
rtoes 9.37379
lfemur -23.0029 -17.3881 -21.2571
ltibia 37.0385
lfoot -5.18935 -7.54477
ltoes -7.55515
1341
root 9.677 17.0592 -2.33391 -5.81375 18.4815 0.222694
lowerback -0.414655 9.38955 10.5269
upperback 5.59596 12.5361 -3.47858
thorax 9.37639 7.05606 -8.14464
lowerneck -14.7831 -12.3032 -4.24739
upperneck -3.54612 -16.0797 17.7368
head 3.19827 -7.31011 4.74903
rclavicle -6.02318e-014 1.59028e-015
rhumerus 66.1941 59.79 -79.3224
rradius 42.8221
rwrist -75.1131
rhand -33.099 8.197
rfingers 7.12502
rthumb -6.30977 -21.689
lclavicle -6.02318e-014 1.59028e-015
lhumerus 66.7957 1.25677 60.9182
lradius 11.0679
lwrist -10.513
lhand -38.2266 39.2399
lfingers 7.12502
lthumb -11.2578 68.9178
rfemur 12.9439 -24.3916 21.036
rtibia 22.2847
rfoot -34.11 -32.9385
rtoes 8.50945
lfemur -23.0606 -17.7975 -21.5762
ltibia 37.1128
lfoot -5.18471 -7.69491
ltoes -7.00189
1342
root 9.6637 17.0601 -2.33049 -5.74347 18.9091 0.487744
lowerback -0.464088 9.39987 10.2026
upperback 5.67592 12.5658 -3.554
thorax 9.44146 7.0601 -8.03472
lowerneck -14.5942 -12.2442 -4.61953
upperneck -3.65651 -15.933 17.8113
head 3.15845 -7.24889 4.8538
rclavicle 6.4605e-015 -9.54166e-015
rhumerus 66.3559 59.768 -78.6593
rradius 42.7071
rwrist -74.6818
rhand -33.0792 8.35691
rfingers 7.12502
rthumb -6.29065 -21.5297
lclavicle 6.4605e-015 -9.54166e-015
lhumerus 66.6611 0.944713 60.6513
lradius 11.2386
lwrist -8.72634
lhand -38.6978 40.2528
lfingers 7.12502
lthumb -11.7123 69.9054
rfemur 12.9521 -24.3234 20.9341
rtibia 22.19
rfoot -34.3629 -33.4187
rtoes 8.31557
lfemur -23.1309 -18.0498 -21.8614
ltibia 37.1766
lfoot -5.18445 -7.91016
ltoes -6.39941
1343
root 9.65394 17.0556 -2.3283 -5.83643 19.3438 0.21211
lowerback -0.572784 9.33533 10.3996
upperback 5.68544 12.4598 -3.53137
thorax 9.53274 7.02321 -8.1135
lowerneck -14.2535 -12.0315 -4.55398
upperneck -3.89843 -15.6149 17.6823
head 2.98109 -7.12901 4.86706
rclavicle 6.85807e-015 -2.22639e-014
rhumerus 65.9648 59.8914 -78.7664
rradius 42.534
rwrist -74.0487
rhand -32.9029 8.51961
rfingers 7.12502
rthumb -6.12043 -21.372
lclavicle 6.85807e-015 -2.22639e-014
lhumerus 66.4043 0.592928 59.6922
lradius 11.3958
lwrist -6.69239
lhand -39.0086 40.0406
lfingers 7.12502
lthumb -12.0119 69.6759
rfemur 12.9306 -24.3962 21.354
rtibia 22.2195
rfoot -34.8344 -33.6265
rtoes 8.83777
lfemur -23.1822 -18.2323 -21.5979
ltibia 37.144
lfoot -5.13187 -8.2489
ltoes -5.48128
1344
root 9.64494 17.0481 -2.32493 -5.87574 19.822 0.0678222
lowerback -0.597363 9.24079 10.4442
upperback 5.56214 12.3315 -3.59129
thorax 9.40194 6.95572 -8.23374
lowerneck -13.8729 -11.7879 -4.85978
upperneck -3.86687 -15.2671 17.9993
head 2.95163 -6.96353 5.06118
rclavicle -9.3727e-014 3.02153e-014
rhumerus 64.7459 59.9817 -79.8467
rradius 42.4396
rwrist -73.3518
rhand -32.8662 8.24511
rfingers 7.12502
rthumb -6.08509 -21.6475
lclavicle -9.3727e-014 3.02153e-014
lhumerus 65.8892 0.171644 58.6624
lradius 11.7908
lwrist -4.91556
lhand -39.2689 40.0666
lfingers 7.12502
lthumb -12.2629 69.687
rfemur 12.928 -24.5872 21.6084
rtibia 22.2099
rfoot -35.2332 -33.9166
rtoes 8.58402
lfemur -23.2293 -18.4452 -21.478
ltibia 37.0778
lfoot -4.97637 -8.5181
ltoes -5.15899
1345
root 9.63416 17.0442 -2.3228 -5.86817 20.2983 0.366572
lowerback -0.472299 9.14316 10.065
upperback 5.50945 12.2348 -3.71512
thorax 9.18422 6.88136 -8.21279
lowerneck -13.7487 -11.5891 -5.32247
upperneck -3.50238 -15.0061 18.2632
head 3.07559 -6.81191 5.23329
rclavicle -1.36167e-014 -9.54166e-015
rhumerus 64.4917 59.9938 -79.7268
rradius 42.4418
rwrist -73.1979
rhand -33.2514 8.27964
rfingers 7.12502
rthumb -6.45687 -21.6019
lclavicle -1.36167e-014 -9.54166e-015
lhumerus 65.4083 -0.254358 57.9692
lradius 12.3038
lwrist -2.94933
lhand -39.8739 40.6855
lfingers 7.12502
lthumb -12.8462 70.2702
rfemur 13.0587 -24.6447 21.3985
rtibia 22.139
rfoot -35.6353 -34.1172
rtoes 8.62397
lfemur -23.1475 -18.7492 -21.8394
ltibia 37.0378
lfoot -4.87111 -8.51584
ltoes -3.59226
1346
root 9.62805 17.0414 -2.32213 -5.85683 20.7646 0.695183
lowerback -0.360823 9.06178 9.73253
upperback 5.50736 12.158 -3.84955
thorax 9.0519 6.82692 -8.21565
lowerneck -13.5304 -11.4406 -5.44078
upperneck -3.32604 -14.8186 18.1835
head 3.07404 -6.72617 5.25443
rclavicle -1.09232e-013 6.36111e-014
rhumerus 64.7527 59.9008 -78.966
rradius 42.3516
rwrist -73.0208
rhand -33.6034 8.77378
rfingers 7.12502
rthumb -6.7967 -21.0971
lclavicle -1.09232e-013 6.36111e-014
lhumerus 64.9921 -0.75323 57.3181
lradius 12.8939
lwrist -0.667787
lhand -40.3762 40.8712
lfingers 7.12502
lthumb -13.3305 70.4248
rfemur 13.2339 -24.6799 21.1189
rtibia 22.0775
rfoot -35.798 -34.1197
rtoes 9.57837
lfemur -23.048 -19.1219 -22.2444
ltibia 37.0182
lfoot -4.87938 -8.54576
ltoes -1.90897
